Coordinates
version=1
nRows=29
nColumns=18
inDegrees=yes

Units are S.I. units (second, meters, Newtons, ...)
Angles are in degrees.

endheader
time	ground_thorax_rot_x	ground_thorax_rot_y	ground_thorax_rot_z	ground_thorax_tx	ground_thorax_ty	ground_thorax_tz	clav_prot	clav_elev	scapula_abduction	scapula_elevation	scapula_upward_rot	scapula_winging	plane_elv	shoulder_elv	axial_rot	elbow_flexion	pro_sup
      0.00000000	      1.42816783	     -0.97614847	     -8.34660228	     -0.00423131	      0.00403036	     -0.00078352	    -24.03083208	     -5.14547424	    -15.04546098	     -4.65503506	     12.56611160	      5.81471425	    -38.18119746	     12.20612859	     49.71109090	      0.00000000	     34.32000000
      0.01000000	      1.43856410	     -1.11141534	     -8.46457435	     -0.00423131	      0.00403036	     -0.00078352	    -23.98582427	     -5.15522034	    -14.81525643	     -4.72863278	     12.82807211	      5.75388352	    -39.42497200	     11.63024753	     54.91993344	      0.00000000	     34.32000000
      0.02000000	      1.47427414	     -1.03529167	     -8.44871651	     -0.00423131	      0.00403036	     -0.00078352	    -23.99100351	     -5.12229654	    -14.83913314	     -4.70034810	     12.81576431	      5.74528812	    -39.41489661	     11.67873828	     54.96393191	      0.00000000	     34.32000000
      0.03000000	      1.41803017	     -1.36237352	     -8.47128591	     -0.00423131	      0.00403036	     -0.00078352	    -23.59035034	     -5.39796577	    -14.61290818	     -4.64300450	     11.88945487	      6.06682323	    -34.67057971	     12.72242390	     48.94981696	      0.00000000	     34.32000000
      0.04000000	      1.69054948	     -0.87198657	     -8.50881833	     -0.00423131	      0.00403036	     -0.00078352	    -24.17804138	     -5.01281661	    -15.34100214	     -4.55768226	     12.54882004	      5.77226731	    -36.13424040	     12.19820569	     49.68547522	      0.00000000	     34.32000000
      0.05000000	      1.57013829	     -1.10245329	     -8.29027803	     -0.00423131	      0.00403036	     -0.00078352	    -23.96475792	     -4.88048751	    -14.68526984	     -4.58931533	     13.10760354	      5.58947653	    -41.96360738	     10.96300433	     64.06393136	      0.00000000	     34.32000000
      0.06000000	      1.60226652	     -1.11871408	     -8.30510083	     -0.00423131	      0.00403036	     -0.00078352	    -23.97391701	     -4.88385179	    -14.70201441	     -4.59164971	     13.10426874	      5.59092265	    -41.96448377	     10.96410065	     64.06329752	      0.00000000	     34.32000000
      0.07000000	      1.60047913	     -0.91374455	     -8.24135592	     -0.00423131	      0.00403036	     -0.00078352	    -24.14622992	     -4.80585209	    -15.01706417	     -4.54281360	     13.10512346	      5.56286307	    -41.85764969	     10.98089595	     62.55378559	      0.00000000	     34.32000000
      0.08000000	      1.59645919	     -0.90436436	     -8.31452549	     -0.00423131	      0.00403036	     -0.00078352	    -24.18330422	     -4.86182813	    -15.08901059	     -4.57810166	     13.06686150	      5.59196052	    -41.42628392	     11.00812709	     61.94432835	      0.00000000	     34.32000000
      0.09000000	      1.51477535	     -0.84557894	     -8.41004852	     -0.00423131	      0.00403036	     -0.00078352	    -24.25412490	     -5.04241611	    -15.36673006	     -4.62994813	     12.71856228	      5.74023613	    -38.96463897	     11.40199764	     57.32227322	      0.00000000	     34.32000000
      0.10000000	      1.52905818	     -0.88360229	     -8.35735993	     -0.00423131	      0.00403036	     -0.00078352	    -24.24745355	     -4.94958854	    -15.20117404	     -4.63865307	     13.02533960	      5.63213334	    -41.88926955	     10.83731973	     64.44651998	      0.00000000	     34.32000000
      0.11000000	      1.65960702	     -1.13125121	     -8.37708452	     -0.00423131	      0.00403036	     -0.00078352	    -23.97350271	     -4.94225257	    -14.83636311	     -4.56876286	     12.84583597	      5.67516543	    -38.77465154	     11.71925618	     55.08141769	      0.00000000	     34.32000000
      0.12000000	      1.54202735	     -0.99953025	     -8.31677480	     -0.00423131	      0.00403036	     -0.00078352	    -24.07487346	     -4.93160862	    -15.04156320	     -4.55401333	     12.79681262	      5.68384325	    -39.53979098	     11.69091403	     55.65893520	      0.00000000	     34.32000000
      0.13000000	      1.57706034	     -0.94658245	     -8.32420070	     -0.00423131	      0.00403036	     -0.00078352	    -24.07000262	     -4.95025439	    -15.02593415	     -4.56917471	     12.80101128	      5.68875461	    -39.53716246	     11.69627659	     55.67887671	      0.00000000	     34.32000000
      0.14000000	      1.42896147	     -0.84810238	     -8.37644038	     -0.00423131	      0.00403036	     -0.00078352	    -24.22074325	     -5.14491205	    -15.18030117	     -4.75373536	     12.89820839	      5.73215486	    -42.21648529	     11.00777682	     64.39148769	      0.00000000	     34.32000000
      0.15000000	      1.44060167	     -0.91947185	     -8.37760967	     -0.00423131	      0.00403036	     -0.00078352	    -24.22441362	     -5.15214072	    -15.17321576	     -4.76489104	     12.91857227	      5.72985036	    -42.21620355	     11.01167885	     64.38992123	      0.00000000	     34.32000000
      0.16000000	      1.56990575	     -1.15838043	     -8.39597505	     -0.00423131	      0.00403036	     -0.00078352	    -24.04868918	     -5.02286398	    -14.76599154	     -4.71654438	     13.15595676	      5.62622400	    -42.53259595	     10.92315497	     64.75465774	      0.00000000	     34.32000000
      0.17000000	      1.59460271	     -1.16406188	     -8.39586627	     -0.00423131	      0.00403036	     -0.00078352	    -24.04676072	     -5.01999655	    -14.79802899	     -4.69888335	     13.09662965	      5.64016100	    -41.90896038	     11.04304900	     63.70866507	      0.00000000	     34.32000000
      0.18000000	      1.57533861	     -1.10599531	     -8.39469502	     -0.00423131	      0.00403036	     -0.00078352	    -24.04416673	     -5.00239988	    -14.80492128	     -4.68183009	     13.08413941	      5.63709888	    -41.91000045	     11.02297655	     63.70770936	      0.00000000	     34.32000000
      0.19000000	      1.53674656	     -0.93237065	     -8.43736207	     -0.00423131	      0.00403036	     -0.00078352	    -24.12710188	     -5.12916729	    -15.15443440	     -4.67638338	     12.67165903	      5.78311728	    -38.83253296	     11.75769911	     55.63527614	      0.00000000	     34.32000000
      0.20000000	      1.52188364	     -0.86402112	     -8.44558230	     -0.00423131	      0.00403036	     -0.00078352	    -24.12287233	     -5.10099085	    -15.16368838	     -4.64988346	     12.65457135	      5.77723342	    -38.84311035	     11.73308051	     55.65456812	      0.00000000	     34.32000000
      0.21000000	      1.74244139	     -0.99441360	     -8.37178684	     -0.00423131	      0.00403036	     -0.00078352	    -24.04571615	     -4.79372574	    -15.29537124	     -4.32232769	     12.32776530	      5.75306722	    -34.99632191	     12.25661942	     50.07455054	      0.00000000	     34.32000000
      0.22000000	      1.66984950	     -0.87909490	     -8.58440129	     -0.00423131	      0.00403036	     -0.00078352	    -24.13357410	     -5.07856289	    -15.31897365	     -4.57296006	     12.42565791	      5.82575403	    -35.97260068	     12.20275340	     50.52192564	      0.00000000	     34.32000000
      0.23000000	      1.49313883	     -0.78444809	     -8.35385338	     -0.00423131	      0.00403036	     -0.00078352	    -24.26945956	     -5.01772151	    -15.33012269	     -4.64334881	     12.83823391	      5.70189663	    -40.85039569	     11.35139706	     60.10531848	      0.00000000	     34.32000000
      0.24000000	      1.09196651	     -0.57229917	     -8.69651342	     -0.00423131	      0.00403036	     -0.00078352	    -24.47471520	     -5.76508387	    -15.93238175	     -5.03298254	     12.08360907	      6.15270706	    -37.03516801	     12.36808456	     47.37347861	      0.00000000	     34.32000000
      0.25000000	      1.42040460	     -0.76003108	     -8.36560169	     -0.00423131	      0.00403036	     -0.00078352	    -24.21489432	     -5.25585737	    -15.53555754	     -4.65872136	     12.21446186	      5.93935573	    -36.88716447	     12.51499471	     48.57071318	      0.00000000	     34.32000000
      0.26000000	      1.58751291	     -0.91345750	     -8.35970508	     -0.00423131	      0.00403036	     -0.00078352	    -24.21185158	     -4.96176892	    -15.11033960	     -4.65781250	     13.07138860	      5.62525272	    -42.01880249	     11.01442619	     64.04842742	      0.00000000	     34.32000000
      0.27000000	      1.63389997	     -1.05909897	     -8.34586140	     -0.00423131	      0.00403036	     -0.00078352	    -24.08517638	     -4.89368236	    -14.84680397	     -4.62600301	     13.18007412	      5.57539062	    -41.51790477	     11.21037567	     60.66453679	      0.00000000	     34.32000000
      0.28000000	      1.57550582	     -0.93967116	     -8.37018205	     -0.00423131	      0.00403036	     -0.00078352	    -24.21355526	     -4.94066462	    -15.13758090	     -4.63312784	     13.03855236	      5.62601367	    -41.76691506	     10.98055380	     63.84356184	      0.00000000	     34.32000000
